{
	"asset":{
		"generator":"Khronos glTF Blender I/O v3.5.30",
		"version":"2.0"
	},
	"scene":0,
	"scenes":[
		{
			"name":"Scene",
			"nodes":[
				0,
				1,
				2,
				3,
				4,
				5,
				6,
				7,
				8,
				9
			]
		}
	],
	"nodes":[
		{
			"mesh":0,
			"name":"146967022532687-photo",
			"scale":[
				3,
				3,
				3
			],
			"translation":[
				-1.6800858974456787,
				0,
				-1.2506195306777954
			]
		},
		{
			"mesh":1,
			"name":"146967022532687-photo.001",
			"scale":[
				3,
				3,
				3
			],
			"translation":[
				-0.6243362426757812,
				0,
				-1.053794026374817
			]
		},
		{
			"mesh":2,
			"name":"146967022532687-photo.002",
			"scale":[
				3,
				3,
				3
			],
			"translation":[
				0.29445120692253113,
				0,
				-0.42554935812950134
			]
		},
		{
			"mesh":3,
			"name":"146967022532687-photo.003",
			"scale":[
				3,
				3,
				3
			],
			"translation":[
				0.22306622564792633,
				0,
				-0.7495221495628357
			]
		},
		{
			"mesh":4,
			"name":"146967022532687-photo.004",
			"scale":[
				3,
				3,
				3
			],
			"translation":[
				0.8412113785743713,
				0,
				-0.4035341441631317
			]
		},
		{
			"mesh":5,
			"name":"146967022532687-photo.005",
			"scale":[
				3,
				3,
				3
			],
			"translation":[
				1.6081490516662598,
				0,
				0.6587214469909668
			]
		},
		{
			"mesh":6,
			"name":"Plane",
			"scale":[
				-11.49653148651123,
				-11.49653148651123,
				-11.49653148651123
			]
		},
		{
			"mesh":7,
			"name":"Torus",
			"rotation":[
				0.07918479293584824,
				-0.020455321297049522,
				0.07230564206838608,
				0.994023859500885
			],
			"scale":[
				0.8201043605804443,
				0.8201043605804443,
				0.8201044201850891
			],
			"translation":[
				-0.4866876006126404,
				0.11598047614097595,
				0.4797184467315674
			]
		},
		{
			"mesh":8,
			"name":"Cylinder",
			"rotation":[
				0.04537256062030792,
				0.95457923412323,
				-0.25895148515701294,
				0.1402282416820526
			],
			"scale":[
				0.4720315933227539,
				0.4720315933227539,
				0.4720316231250763
			],
			"translation":[
				0.790378212928772,
				0.07793127000331879,
				-1.441102385520935
			]
		},
		{
			"mesh":9,
			"name":"Sphere",
			"rotation":[
				-0.4947342574596405,
				-0.29763519763946533,
				-0.18655870854854584,
				0.7948881387710571
			],
			"scale":[
				0.13945995271205902,
				0.13945993781089783,
				0.13945996761322021
			],
			"translation":[
				-1.211780309677124,
				0.14968086779117584,
				-0.6983861923217773
			]
		}
	],
	"materials":[
		{
			"alphaMode":"BLEND",
			"doubleSided":true,
			"name":"146967022532687-photo",
			"pbrMetallicRoughness":{
				"metallicFactor":0,
				"roughnessFactor":0.5
			}
		}
	],
	"meshes":[
		{
			"name":"146967022532687-photo",
			"primitives":[
				{
					"attributes":{
						"POSITION":0,
						"NORMAL":1
					},
					"indices":2,
					"material":0
				}
			]
		},
		{
			"name":"146967022532687-photo.006",
			"primitives":[
				{
					"attributes":{
						"POSITION":3,
						"NORMAL":4
					},
					"indices":5,
					"material":0
				}
			]
		},
		{
			"name":"146967022532687-photo.007",
			"primitives":[
				{
					"attributes":{
						"POSITION":6,
						"NORMAL":7
					},
					"indices":8,
					"material":0
				}
			]
		},
		{
			"name":"146967022532687-photo.008",
			"primitives":[
				{
					"attributes":{
						"POSITION":9,
						"NORMAL":10
					},
					"indices":11,
					"material":0
				}
			]
		},
		{
			"name":"146967022532687-photo.009",
			"primitives":[
				{
					"attributes":{
						"POSITION":12,
						"NORMAL":13
					},
					"indices":14,
					"material":0
				}
			]
		},
		{
			"name":"146967022532687-photo.010",
			"primitives":[
				{
					"attributes":{
						"POSITION":15,
						"NORMAL":16
					},
					"indices":17,
					"material":0
				}
			]
		},
		{
			"name":"Plane",
			"primitives":[
				{
					"attributes":{
						"POSITION":18,
						"TEXCOORD_0":19,
						"NORMAL":20
					},
					"indices":21
				}
			]
		},
		{
			"name":"Torus",
			"primitives":[
				{
					"attributes":{
						"POSITION":22,
						"TEXCOORD_0":23,
						"NORMAL":24
					},
					"indices":25
				}
			]
		},
		{
			"name":"Cylinder",
			"primitives":[
				{
					"attributes":{
						"POSITION":26,
						"TEXCOORD_0":27,
						"NORMAL":28
					},
					"indices":29
				}
			]
		},
		{
			"name":"Sphere",
			"primitives":[
				{
					"attributes":{
						"POSITION":30,
						"TEXCOORD_0":31,
						"NORMAL":32
					},
					"indices":33
				}
			]
		}
	],
	"accessors":[
		{
			"bufferView":0,
			"componentType":5126,
			"count":3640,
			"max":[
				0.06778678297996521,
				0.017256921157240868,
				0.056622862815856934
			],
			"min":[
				-0.07570558786392212,
				0,
				-0.05087760090827942
			],
			"type":"VEC3"
		},
		{
			"bufferView":1,
			"componentType":5126,
			"count":3640,
			"type":"VEC3"
		},
		{
			"bufferView":2,
			"componentType":5123,
			"count":5760,
			"type":"SCALAR"
		},
		{
			"bufferView":3,
			"componentType":5126,
			"count":3104,
			"max":[
				0.08779957890510559,
				0.022570157423615456,
				0.06595194339752197
			],
			"min":[
				-0.09122636914253235,
				3.3527612686157227e-08,
				-0.08307379484176636
			],
			"type":"VEC3"
		},
		{
			"bufferView":4,
			"componentType":5126,
			"count":3104,
			"type":"VEC3"
		},
		{
			"bufferView":5,
			"componentType":5123,
			"count":4656,
			"type":"SCALAR"
		},
		{
			"bufferView":6,
			"componentType":5126,
			"count":384,
			"max":[
				0.020886793732643127,
				0.006550048012286425,
				0.020886778831481934
			],
			"min":[
				-0.017720744013786316,
				1.3969838619232178e-09,
				-0.01771986484527588
			],
			"type":"VEC3"
		},
		{
			"bufferView":7,
			"componentType":5126,
			"count":384,
			"type":"VEC3"
		},
		{
			"bufferView":8,
			"componentType":5123,
			"count":576,
			"type":"SCALAR"
		},
		{
			"bufferView":9,
			"componentType":5126,
			"count":2594,
			"max":[
				0.08520352840423584,
				0.021378612145781517,
				0.029632166028022766
			],
			"min":[
				-0.0841473639011383,
				-1.30385160446167e-08,
				-0.019951418042182922
			],
			"type":"VEC3"
		},
		{
			"bufferView":10,
			"componentType":5126,
			"count":2594,
			"type":"VEC3"
		},
		{
			"bufferView":11,
			"componentType":5123,
			"count":4320,
			"type":"SCALAR"
		},
		{
			"bufferView":12,
			"componentType":5126,
			"count":5348,
			"max":[
				0.11535263061523438,
				0.047405142337083817,
				0.06827463209629059
			],
			"min":[
				-0.10417485237121582,
				7.450580596923828e-09,
				-0.06325982511043549
			],
			"type":"VEC3"
		},
		{
			"bufferView":13,
			"componentType":5126,
			"count":5348,
			"type":"VEC3"
		},
		{
			"bufferView":14,
			"componentType":5123,
			"count":8256,
			"type":"SCALAR"
		},
		{
			"bufferView":15,
			"componentType":5126,
			"count":8452,
			"max":[
				0.20350682735443115,
				0.1310844123363495,
				0.20000672340393066
			],
			"min":[
				-0.1556049883365631,
				2.2351741790771484e-07,
				-0.19915738701820374
			],
			"type":"VEC3"
		},
		{
			"bufferView":16,
			"componentType":5126,
			"count":8452,
			"type":"VEC3"
		},
		{
			"bufferView":17,
			"componentType":5123,
			"count":12720,
			"type":"SCALAR"
		},
		{
			"bufferView":18,
			"componentType":5126,
			"count":4,
			"max":[
				1,
				0,
				1
			],
			"min":[
				-1,
				0,
				-1
			],
			"type":"VEC3"
		},
		{
			"bufferView":19,
			"componentType":5126,
			"count":4,
			"type":"VEC2"
		},
		{
			"bufferView":20,
			"componentType":5126,
			"count":4,
			"type":"VEC3"
		},
		{
			"bufferView":21,
			"componentType":5123,
			"count":6,
			"type":"SCALAR"
		},
		{
			"bufferView":22,
			"componentType":5126,
			"count":576,
			"max":[
				0.8500000238418579,
				0.25,
				0.8500000238418579
			],
			"min":[
				-0.8500000238418579,
				-0.25,
				-0.8500000238418579
			],
			"type":"VEC3"
		},
		{
			"bufferView":23,
			"componentType":5126,
			"count":576,
			"type":"VEC2"
		},
		{
			"bufferView":24,
			"componentType":5126,
			"count":576,
			"type":"VEC3"
		},
		{
			"bufferView":25,
			"componentType":5123,
			"count":864,
			"type":"SCALAR"
		},
		{
			"bufferView":26,
			"componentType":5126,
			"count":1078,
			"max":[
				1.703934907913208,
				1,
				1
			],
			"min":[
				-1,
				-1,
				-1
			],
			"type":"VEC3"
		},
		{
			"bufferView":27,
			"componentType":5126,
			"count":1078,
			"type":"VEC2"
		},
		{
			"bufferView":28,
			"componentType":5126,
			"count":1078,
			"type":"VEC3"
		},
		{
			"bufferView":29,
			"componentType":5123,
			"count":2448,
			"type":"SCALAR"
		},
		{
			"bufferView":30,
			"componentType":5126,
			"count":560,
			"max":[
				0.8182582855224609,
				1,
				0.45878103375434875
			],
			"min":[
				0,
				-1,
				0
			],
			"type":"VEC3"
		},
		{
			"bufferView":31,
			"componentType":5126,
			"count":560,
			"type":"VEC2"
		},
		{
			"bufferView":32,
			"componentType":5126,
			"count":560,
			"type":"VEC3"
		},
		{
			"bufferView":33,
			"componentType":5123,
			"count":816,
			"type":"SCALAR"
		}
	],
	"bufferViews":[
		{
			"buffer":0,
			"byteLength":43680,
			"byteOffset":0,
			"target":34962
		},
		{
			"buffer":0,
			"byteLength":43680,
			"byteOffset":43680,
			"target":34962
		},
		{
			"buffer":0,
			"byteLength":11520,
			"byteOffset":87360,
			"target":34963
		},
		{
			"buffer":0,
			"byteLength":37248,
			"byteOffset":98880,
			"target":34962
		},
		{
			"buffer":0,
			"byteLength":37248,
			"byteOffset":136128,
			"target":34962
		},
		{
			"buffer":0,
			"byteLength":9312,
			"byteOffset":173376,
			"target":34963
		},
		{
			"buffer":0,
			"byteLength":4608,
			"byteOffset":182688,
			"target":34962
		},
		{
			"buffer":0,
			"byteLength":4608,
			"byteOffset":187296,
			"target":34962
		},
		{
			"buffer":0,
			"byteLength":1152,
			"byteOffset":191904,
			"target":34963
		},
		{
			"buffer":0,
			"byteLength":31128,
			"byteOffset":193056,
			"target":34962
		},
		{
			"buffer":0,
			"byteLength":31128,
			"byteOffset":224184,
			"target":34962
		},
		{
			"buffer":0,
			"byteLength":8640,
			"byteOffset":255312,
			"target":34963
		},
		{
			"buffer":0,
			"byteLength":64176,
			"byteOffset":263952,
			"target":34962
		},
		{
			"buffer":0,
			"byteLength":64176,
			"byteOffset":328128,
			"target":34962
		},
		{
			"buffer":0,
			"byteLength":16512,
			"byteOffset":392304,
			"target":34963
		},
		{
			"buffer":0,
			"byteLength":101424,
			"byteOffset":408816,
			"target":34962
		},
		{
			"buffer":0,
			"byteLength":101424,
			"byteOffset":510240,
			"target":34962
		},
		{
			"buffer":0,
			"byteLength":25440,
			"byteOffset":611664,
			"target":34963
		},
		{
			"buffer":0,
			"byteLength":48,
			"byteOffset":637104,
			"target":34962
		},
		{
			"buffer":0,
			"byteLength":32,
			"byteOffset":637152,
			"target":34962
		},
		{
			"buffer":0,
			"byteLength":48,
			"byteOffset":637184,
			"target":34962
		},
		{
			"buffer":0,
			"byteLength":12,
			"byteOffset":637232,
			"target":34963
		},
		{
			"buffer":0,
			"byteLength":6912,
			"byteOffset":637244,
			"target":34962
		},
		{
			"buffer":0,
			"byteLength":4608,
			"byteOffset":644156,
			"target":34962
		},
		{
			"buffer":0,
			"byteLength":6912,
			"byteOffset":648764,
			"target":34962
		},
		{
			"buffer":0,
			"byteLength":1728,
			"byteOffset":655676,
			"target":34963
		},
		{
			"buffer":0,
			"byteLength":12936,
			"byteOffset":657404,
			"target":34962
		},
		{
			"buffer":0,
			"byteLength":8624,
			"byteOffset":670340,
			"target":34962
		},
		{
			"buffer":0,
			"byteLength":12936,
			"byteOffset":678964,
			"target":34962
		},
		{
			"buffer":0,
			"byteLength":4896,
			"byteOffset":691900,
			"target":34963
		},
		{
			"buffer":0,
			"byteLength":6720,
			"byteOffset":696796,
			"target":34962
		},
		{
			"buffer":0,
			"byteLength":4480,
			"byteOffset":703516,
			"target":34962
		},
		{
			"buffer":0,
			"byteLength":6720,
			"byteOffset":707996,
			"target":34962
		},
		{
			"buffer":0,
			"byteLength":1632,
			"byteOffset":714716,
			"target":34963
		}
	],
	"buffers":[
		{
			"byteLength":716348,
			"uri":"coffee_demo.gltb.bin"
		}
	]
}
